<?xml version="1.0" encoding="iso-8859-1"?>
<!-- Generator: Adobe Illustrator 19.0.0, SVG Export Plug-In . SVG Version: 6.00 Build 0)  -->
<svg version="1.1" id="Capa_1" xmlns="http://www.w3.org/2000/svg" xmlns:xlink="http://www.w3.org/1999/xlink" x="0px" y="0px"
	 viewBox="0 0 512 512" style="enable-background:new 0 0 512 512;" xml:space="preserve">
<g>
	<path style="fill:#CD4F38;" d="M397.241,112.287c0.001-3.957-1.302-7.804-3.708-10.946c-0.957-1.294-2.085-2.453-3.354-3.443
		L266.593,3.619c-6.238-4.825-14.948-4.825-21.186,0L121.821,97.898c-1.269,0.99-2.398,2.148-3.354,3.443
		c-2.405,3.142-3.708,6.989-3.708,10.946v287.426c-0.001,3.957,1.302,7.804,3.708,10.946c0.957,1.294,2.085,2.453,3.354,3.443
		l123.586,94.279c6.238,4.826,14.949,4.826,21.186,0l123.586-94.279c1.269-0.99,2.398-2.148,3.354-3.443
		c2.405-3.142,3.708-6.989,3.708-10.946V112.287z"/>
	<g>
		<path style="fill:none;stroke:#000000;stroke-width:2;stroke-linecap:round;stroke-linejoin:round;" d="M256,122.483
			l44.138,36.414"/>
		<path style="fill:none;stroke:#000000;stroke-width:2;stroke-linecap:round;stroke-linejoin:round;" d="M211.862,140.138
			l88.276,71.724"/>
	</g>
	<g>
		<path style="fill:#ED634C;" d="M256,0v62.146l-88.276,67.354l-49.258-28.16c0.957-1.294,2.085-2.453,3.354-3.443L245.407,3.619
			C248.452,1.296,252.17,0.026,256,0z"/>
		<path style="fill:#FF6C77;" d="M167.724,129.501v252.999l-49.258,28.16c-2.405-3.142-3.708-6.989-3.708-10.946V112.287
			c-0.001-3.957,1.302-7.804,3.708-10.946L167.724,129.501z"/>
		<path style="fill:#ED634C;" d="M393.534,410.659c-0.957,1.294-2.085,2.453-3.354,3.443l-123.586,94.279
			c-3.045,2.323-6.763,3.593-10.593,3.619v-62.146l88.276-67.354L393.534,410.659z"/>
		<path style="fill:#FF6C77;" d="M397.241,112.287v287.426c0.001,3.957-1.302,7.804-3.708,10.946l-49.258-28.16V129.501
			l49.258-28.16C395.939,104.483,397.242,108.33,397.241,112.287z"/>
		<polygon style="fill:#FE9189;" points="344.276,129.501 344.276,382.499 256,449.854 167.724,382.499 167.724,129.501 256,62.146 
					"/>
		<g>
			<path style="fill:#FFFFFF;" d="M300.129,167.724c-2.049,0.002-4.033-0.712-5.612-2.017l-44.138-36.414
				c-3.761-3.104-4.294-8.67-1.19-12.431c3.104-3.761,8.67-4.294,12.431-1.19l44.138,36.414c2.873,2.372,3.948,6.293,2.686,9.799
				C307.183,165.391,303.855,167.728,300.129,167.724z"/>
			<path style="fill:#FFFFFF;" d="M300.129,220.69c-2.026,0.002-3.991-0.697-5.56-1.978l-88.276-71.724
				c-2.465-1.984-3.68-5.136-3.184-8.261c0.496-3.125,2.627-5.746,5.585-6.869c2.958-1.123,6.292-0.577,8.737,1.432l88.276,71.724
				c2.9,2.358,4.001,6.287,2.748,9.808C307.202,218.343,303.867,220.693,300.129,220.69z"/>
		</g>
	</g>
</g>
<g>
</g>
<g>
</g>
<g>
</g>
<g>
</g>
<g>
</g>
<g>
</g>
<g>
</g>
<g>
</g>
<g>
</g>
<g>
</g>
<g>
</g>
<g>
</g>
<g>
</g>
<g>
</g>
<g>
</g>
</svg>
